<?xml version="1.0" encoding="utf-8"?>
<!-- Generator: Adobe Illustrator 16.0.0, SVG Export Plug-In . SVG Version: 6.00 Build 0)  -->
<!DOCTYPE svg PUBLIC "-//W3C//DTD SVG 1.1//EN" "http://www.w3.org/Graphics/SVG/1.1/DTD/svg11.dtd">
<svg version="1.1" id="Layer_1" xmlns="http://www.w3.org/2000/svg" xmlns:xlink="http://www.w3.org/1999/xlink" x="0px" y="0px"
	 width="100px" height="100px" viewBox="0 0 100 100" enable-background="new 0 0 100 100" xml:space="preserve">
<g>
	<path fill="#382F90" d="M50,95.766c-25.237,0-45.767-20.529-45.767-45.764C4.232,24.766,24.762,4.234,50,4.234
		c25.236,0,45.769,20.532,45.769,45.768C95.769,75.236,75.235,95.766,50,95.766L50,95.766z M50,5.086
		c-24.765,0-44.914,20.149-44.914,44.916S25.234,94.914,50,94.914c24.767,0,44.915-20.146,44.915-44.913S74.767,5.086,50,5.086
		L50,5.086z"/>
	<path fill="#382F90" d="M50,99.5c-27.294,0-49.5-22.205-49.5-49.499C0.5,22.705,22.706,0.5,50,0.5
		c27.294,0,49.5,22.205,49.5,49.501C99.5,77.295,77.294,99.5,50,99.5L50,99.5z M50,2.207c-26.354,0-47.794,21.44-47.794,47.795
		c0,26.352,21.44,47.792,47.794,47.792c26.353,0,47.793-21.44,47.793-47.792C97.793,23.646,76.353,2.207,50,2.207L50,2.207z"/>
	<g>
		<polygon fill="#382F90" points="23.858,61.695 23.858,43.153 28.494,38.506 28.494,57.074 		"/>
		<polygon fill="#382F90" points="70.236,57.1 70.236,47.788 74.871,43.146 74.871,52.476 		"/>
		<polygon fill="#382F90" points="28.494,38.511 42.417,38.511 47.06,43.146 33.144,43.146 		"/>
		<polygon fill="#382F90" points="28.494,57.097 42.417,57.097 47.06,61.731 33.144,61.731 		"/>
		<polygon fill="#382F90" points="56.311,38.511 70.231,38.511 74.876,43.146 60.957,43.146 		"/>
		<polygon fill="#382F90" points="56.311,57.097 70.231,57.097 74.876,61.731 60.957,61.731 		"/>
		<polygon fill="#382F90" points="51.671,61.716 51.671,29.234 56.311,24.593 56.311,57.097 		"/>
	</g>
</g>
</svg>
